inDegrees=no
num_controls=7
num_derivatives=13
num_iterations=60
num_multipliers=7
num_parameters=0
num_slacks=7
num_states=26
objective=0.466096
objective_accelerations=0.007400
objective_balance=0.001310
objective_effort=0.006327
objective_height=0.445364
objective_ligament=0.005696
solver_duration=892.992279
status=Solve_Succeeded
success=true
DataType=double
version=3
OpenSimVersion=4.5
endheader
time	/jointset/ground_pelvis/pelvis_tilt/value	/jointset/ground_pelvis/pelvis_tx/value	/jointset/ground_pelvis/pelvis_ty/value	/jointset/hip_l/hip_flexion_l/value	/jointset/hip_l/hip_adduction_l/value	/jointset/hip_l/hip_rotation_l/value	/jointset/back/lumbar_extension/value	/jointset/patellofemoral_l/patellar_flexion_l/value	/jointset/knee_l/knee_flexion_l/value	/jointset/knee_l/knee_adduction_l/value	/jointset/knee_l/knee_rotation_l/value	/jointset/ankle_l/ankle_angle_l/value	/jointset/subtalar_l/subtalar_angle_l/value	/jointset/ground_pelvis/pelvis_tilt/speed	/jointset/ground_pelvis/pelvis_tx/speed	/jointset/ground_pelvis/pelvis_ty/speed	/jointset/hip_l/hip_flexion_l/speed	/jointset/hip_l/hip_adduction_l/speed	/jointset/hip_l/hip_rotation_l/speed	/jointset/back/lumbar_extension/speed	/jointset/patellofemoral_l/patellar_flexion_l/speed	/jointset/knee_l/knee_flexion_l/speed	/jointset/knee_l/knee_adduction_l/speed	/jointset/knee_l/knee_rotation_l/speed	/jointset/ankle_l/ankle_angle_l/speed	/jointset/subtalar_l/subtalar_angle_l/speed	/forceset/tau_hip_flexion_l	/forceset/tau_hip_adduction_l	/forceset/tau_hip_rotation_l	/forceset/tau_knee_flexion_l	/forceset/tau_ankle_angle_l	/forceset/tau_subtalar_angle_l	/forceset/tau_lumbar_extension	lambda_cid13_p0	lambda_cid13_p1	lambda_cid13_p2	lambda_cid13_p3	lambda_cid13_p4	lambda_cid13_p5	lambda_cid14_p0	/jointset/ground_pelvis/pelvis_tilt/accel	/jointset/ground_pelvis/pelvis_tx/accel	/jointset/ground_pelvis/pelvis_ty/accel	/jointset/hip_l/hip_flexion_l/accel	/jointset/hip_l/hip_adduction_l/accel	/jointset/hip_l/hip_rotation_l/accel	/jointset/back/lumbar_extension/accel	/jointset/patellofemoral_l/patellar_flexion_l/accel	/jointset/knee_l/knee_flexion_l/accel	/jointset/knee_l/knee_adduction_l/accel	/jointset/knee_l/knee_rotation_l/accel	/jointset/ankle_l/ankle_angle_l/accel	/jointset/subtalar_l/subtalar_angle_l/accel	gamma_cid13_p0	gamma_cid13_p1	gamma_cid13_p2	gamma_cid13_p3	gamma_cid13_p4	gamma_cid13_p5	gamma_cid14_p0
1	-0.04246886424225445	0.1287700817760206	0.8664577505380117	0.3039435959688073	-0.4070360303109115	-0.4128501227333898	-0.2584690089177644	0.4301111863536854	0.430111186353809	-0.1740798849169933	-0.1741742213987423	0.1829583790064199	0.05076626620908541	-0.03575199842692794	0.02331116928955791	-0.001635762701301214	0.003154091438544094	-2.380426811419392e-05	-0.006593864309243676	0.06053747515749754	-0.006951397112862094	-0.006951397112862295	-0.0006190075278888866	0.0017872383684196	0.02415564983632441	0.015564588223686	-0.03799859038978539	0.09445766482500141	-0.009692705912767082	-0.1335176295198052	-0.07516683612221663	-0.01616163919993118	0.08301740074281512	-60.09261186519505	11.74075231110148	4.417313236148618	11.5890078934632	-556.6129403013991	-37.13654277992204	-40.23090543090118	-0.2010479899344605	-0.1316001132545255	0.1722757997513077	-0.4166115493235335	0.3297759726788948	-0.4905881981183794	0.5865543163231898	-1.511621776083135	-1.511621776083085	-0.01428014091116493	0.08986962347847187	-0.9312263357295315	-0.1688381007452618	3.30528345647812e-10	7.186834907501083e-09	-3.671654504494741e-09	2.726868974475585e-09	-8.953571437917583e-10	1.063159291239957e-08	5.035326757665111e-10
1.01	-0.04283672002417366	0.1289966306999447	0.8664499403507445	0.3039549340676224	-0.4070197278963859	-0.4129408671759993	-0.2578339001489181	0.4299666406467252	0.4299666406468652	-0.174086282322988	-0.174152195918988	0.1831536638794341	0.05091372030729064	-0.0378128004785968	0.02200162131568083	7.441280306735577e-05	-0.0008972050773783317	0.003286812474121793	-0.01155735552849142	0.06648751029488988	-0.0219596581264567	-0.02195965812645617	-0.00065563517375726	0.002618424960025056	0.01490527275376794	0.01393151823219967	-0.03802175365697695	0.09458412139865387	-0.009666893304347007	-0.1332889227354925	-0.07542294111176477	-0.0161839996777448	0.08297708152125462	-60.1694160008614	11.76133806066755	4.416970627338998	11.54986874026027	-556.5675591123297	-37.09764768987376	-40.23336177825987	-0.2076426658130417	-0.1301806781742862	0.1704910499159646	-0.4009987627930955	0.3320835392894332	-0.4995790616350227	0.5997128653121201	-1.495715380888838	-1.495715380888685	0.002372221208927249	0.07982819914076049	-0.9213511189465166	-0.1597493271691666	-5.171191741071986e-10	6.684781087239827e-09	-1.168308287980775e-09	2.941040492500665e-09	-2.529353130182161e-09	8.176511806890908e-09	2.043548222544446e-10
1.02	-0.04322499309721463	0.1292101744363865	0.8664592524433468	0.3039254371892771	-0.4069702435115746	-0.4130813164263659	-0.2571391940781246	0.4296719549062348	0.4296719549064115	-0.1740929007458784	-0.1741218415689426	0.1832565634367374	0.05104500212981789	-0.03983545665146651	0.02071013179310529	0.001788693272687428	-0.005012903995944022	0.006612589788094358	-0.0165348258600433	0.07245693554684876	-0.03697940381570186	-0.03697940381570084	-0.0006632109142840237	0.003453012437182895	0.005678586694090675	0.01233013308795167	-0.03804491692406654	0.09471057797231758	-0.009641080695609282	-0.1330602159512101	-0.07567904610131475	-0.01620636015554909	0.08293676229977835	-60.25398198836957	11.78170570055561	4.418464183779297	11.53467365182352	-556.6319875395488	-37.07464644816788	-40.23878976455327	-0.1934188141744488	-0.1279884229943676	0.1730967928016132	-0.4294920298521668	0.3328080870261872	-0.4933840205794126	0.5904323392366467	-1.513918711213166	-1.513918711213161	-0.008469759842814843	0.09054980058867867	-0.9264881311538538	-0.1625011312977254	-1.28860277276732e-09	6.630473064084508e-09	9.917132664022093e-10	3.205080677855768e-09	-4.084090436054971e-09	6.222537138789328e-09	-3.628428206441041e-11
1.03	-0.04363332152297283	0.1294108883694928	0.8664857164933955	0.3038545324424785	-0.4068874145093326	-0.4132716257610362	-0.2563846917412739	0.4292270769136655	0.4292270769137986	-0.1740993882367361	-0.1740831486486385	0.1832673422087341	0.05116046167594638	-0.0418252421882666	0.01943519135527554	0.003503732273685256	-0.009172664724809799	0.009956679549482299	-0.02152985982911617	0.07844673417627222	-0.05199236463904836	-0.05199236463904357	-0.0006242502893697402	0.00428467134616422	-0.003516273207017934	0.01077004111555472	-0.03803974094425545	0.09479812118831608	-0.00961729795775048	-0.1327763301013938	-0.07584641488237744	-0.01624601247232411	0.08285861029653808	-60.30210409366111	11.80289807682336	4.420173649117594	11.49531131968489	-556.5556149850511	-37.03478896723372	-40.24716830637701	-0.2010105786641186	-0.126865679994151	0.1706486472508959	-0.4099112255548547	0.3357293051724315	-0.5029862164748327	0.6037339782096662	-1.494410202267978	-1.49441020226731	0.01158545996356347	0.07933952203529564	-0.9150011197821272	-0.1515248580233671	-2.059309188559126e-09	6.580733875593539e-09	3.148231507906304e-09	3.469629727163217e-09	-5.638018979881681e-09	4.273675801681702e-09	-2.76326052207824e-10
